<?xml version="1.0" encoding="UTF-8" standalone="no"?>
<!DOCTYPE svg PUBLIC "-//W3C//DTD SVG 1.1//EN"
 "http://www.w3.org/Graphics/SVG/1.1/DTD/svg11.dtd">
<!-- Generated by graphviz version 2.43.0 (0)
 -->
<!-- Title: multinumber Pages: 1 -->
<svg width="485pt" height="260pt"
 viewBox="0.00 0.00 485.00 260.00" xmlns="http://www.w3.org/2000/svg" xmlns:xlink="http://www.w3.org/1999/xlink">
<g id="graph0" class="graph" transform="scale(1 1) rotate(0) translate(4 256)">
<title>multinumber</title>
<polygon fill="black" stroke="transparent" points="-4,4 -4,-256 481,-256 481,4 -4,4"/>
<!-- 0 -->
<g id="node1" class="node">
<title>0</title>
<polygon fill="none" stroke="white" points="403.5,-252 208.5,-252 208.5,-216 403.5,-216 403.5,-252"/>
<text text-anchor="middle" x="306" y="-230.3" font-family="Times,serif" font-size="14.00" fill="white">[[[], [], [[]], []], [], [], [], []]</text>
</g>
<!-- 0.0 -->
<g id="node2" class="node">
<title>0.0</title>
<polygon fill="none" stroke="white" points="188.5,-180 81.5,-180 81.5,-144 188.5,-144 188.5,-180"/>
<text text-anchor="middle" x="135" y="-158.3" font-family="Times,serif" font-size="14.00" fill="white">[[], [], [[]], []]</text>
</g>
<!-- 0&#45;&gt;0.0 -->
<g id="edge1" class="edge">
<title>0&#45;&gt;0.0</title>
<path fill="none" stroke="#666666" d="M264.17,-215.88C240.58,-206.22 210.94,-194.09 186,-183.88"/>
<polygon fill="#666666" stroke="#666666" points="187.28,-180.62 176.7,-180.07 184.62,-187.1 187.28,-180.62"/>
</g>
<!-- 0.1 -->
<g id="node8" class="node">
<title>0.1</title>
<polygon fill="none" stroke="white" points="261,-180 207,-180 207,-144 261,-144 261,-180"/>
<text text-anchor="middle" x="234" y="-158.3" font-family="Times,serif" font-size="14.00" fill="white">[]</text>
</g>
<!-- 0&#45;&gt;0.1 -->
<g id="edge7" class="edge">
<title>0&#45;&gt;0.1</title>
<path fill="none" stroke="#666666" d="M288.2,-215.7C279.4,-207.14 268.62,-196.66 259,-187.3"/>
<polygon fill="#666666" stroke="#666666" points="261.2,-184.57 251.59,-180.1 256.32,-189.58 261.2,-184.57"/>
</g>
<!-- 0.2 -->
<g id="node9" class="node">
<title>0.2</title>
<polygon fill="none" stroke="white" points="333,-180 279,-180 279,-144 333,-144 333,-180"/>
<text text-anchor="middle" x="306" y="-158.3" font-family="Times,serif" font-size="14.00" fill="white">[]</text>
</g>
<!-- 0&#45;&gt;0.2 -->
<g id="edge8" class="edge">
<title>0&#45;&gt;0.2</title>
<path fill="none" stroke="#666666" d="M306,-215.7C306,-207.98 306,-198.71 306,-190.11"/>
<polygon fill="#666666" stroke="#666666" points="309.5,-190.1 306,-180.1 302.5,-190.1 309.5,-190.1"/>
</g>
<!-- 0.3 -->
<g id="node10" class="node">
<title>0.3</title>
<polygon fill="none" stroke="white" points="405,-180 351,-180 351,-144 405,-144 405,-180"/>
<text text-anchor="middle" x="378" y="-158.3" font-family="Times,serif" font-size="14.00" fill="white">[]</text>
</g>
<!-- 0&#45;&gt;0.3 -->
<g id="edge9" class="edge">
<title>0&#45;&gt;0.3</title>
<path fill="none" stroke="#666666" d="M323.8,-215.7C332.6,-207.14 343.38,-196.66 353,-187.3"/>
<polygon fill="#666666" stroke="#666666" points="355.68,-189.58 360.41,-180.1 350.8,-184.57 355.68,-189.58"/>
</g>
<!-- 0.4 -->
<g id="node11" class="node">
<title>0.4</title>
<polygon fill="none" stroke="white" points="477,-180 423,-180 423,-144 477,-144 477,-180"/>
<text text-anchor="middle" x="450" y="-158.3" font-family="Times,serif" font-size="14.00" fill="white">[]</text>
</g>
<!-- 0&#45;&gt;0.4 -->
<g id="edge10" class="edge">
<title>0&#45;&gt;0.4</title>
<path fill="none" stroke="#666666" d="M341.23,-215.88C363.23,-205.18 391.49,-191.44 413.7,-180.65"/>
<polygon fill="#666666" stroke="#666666" points="415.34,-183.74 422.8,-176.22 412.28,-177.44 415.34,-183.74"/>
</g>
<!-- 0.0.0 -->
<g id="node3" class="node">
<title>0.0.0</title>
<polygon fill="none" stroke="white" points="54,-108 0,-108 0,-72 54,-72 54,-108"/>
<text text-anchor="middle" x="27" y="-86.3" font-family="Times,serif" font-size="14.00" fill="white">[]</text>
</g>
<!-- 0.0&#45;&gt;0.0.0 -->
<g id="edge2" class="edge">
<title>0.0&#45;&gt;0.0.0</title>
<path fill="none" stroke="#666666" d="M108.58,-143.88C94.59,-134.81 77.22,-123.55 62.11,-113.76"/>
<polygon fill="#666666" stroke="#666666" points="63.82,-110.69 53.52,-108.19 60.01,-116.57 63.82,-110.69"/>
</g>
<!-- 0.0.1 -->
<g id="node4" class="node">
<title>0.0.1</title>
<polygon fill="none" stroke="white" points="126,-108 72,-108 72,-72 126,-72 126,-108"/>
<text text-anchor="middle" x="99" y="-86.3" font-family="Times,serif" font-size="14.00" fill="white">[]</text>
</g>
<!-- 0.0&#45;&gt;0.0.1 -->
<g id="edge3" class="edge">
<title>0.0&#45;&gt;0.0.1</title>
<path fill="none" stroke="#666666" d="M126.1,-143.7C122,-135.73 117.05,-126.1 112.51,-117.26"/>
<polygon fill="#666666" stroke="#666666" points="115.48,-115.4 107.8,-108.1 109.26,-118.6 115.48,-115.4"/>
</g>
<!-- 0.0.2 -->
<g id="node5" class="node">
<title>0.0.2</title>
<polygon fill="none" stroke="white" points="198,-108 144,-108 144,-72 198,-72 198,-108"/>
<text text-anchor="middle" x="171" y="-86.3" font-family="Times,serif" font-size="14.00" fill="white">[[]]</text>
</g>
<!-- 0.0&#45;&gt;0.0.2 -->
<g id="edge4" class="edge">
<title>0.0&#45;&gt;0.0.2</title>
<path fill="none" stroke="#666666" d="M143.9,-143.7C148,-135.73 152.95,-126.1 157.49,-117.26"/>
<polygon fill="#666666" stroke="#666666" points="160.74,-118.6 162.2,-108.1 154.52,-115.4 160.74,-118.6"/>
</g>
<!-- 0.0.3 -->
<g id="node7" class="node">
<title>0.0.3</title>
<polygon fill="none" stroke="white" points="270,-108 216,-108 216,-72 270,-72 270,-108"/>
<text text-anchor="middle" x="243" y="-86.3" font-family="Times,serif" font-size="14.00" fill="white">[]</text>
</g>
<!-- 0.0&#45;&gt;0.0.3 -->
<g id="edge6" class="edge">
<title>0.0&#45;&gt;0.0.3</title>
<path fill="none" stroke="#666666" d="M161.42,-143.88C175.41,-134.81 192.78,-123.55 207.89,-113.76"/>
<polygon fill="#666666" stroke="#666666" points="209.99,-116.57 216.48,-108.19 206.18,-110.69 209.99,-116.57"/>
</g>
<!-- 0.0.2.0 -->
<g id="node6" class="node">
<title>0.0.2.0</title>
<polygon fill="none" stroke="white" points="198,-36 144,-36 144,0 198,0 198,-36"/>
<text text-anchor="middle" x="171" y="-14.3" font-family="Times,serif" font-size="14.00" fill="white">[]</text>
</g>
<!-- 0.0.2&#45;&gt;0.0.2.0 -->
<g id="edge5" class="edge">
<title>0.0.2&#45;&gt;0.0.2.0</title>
<path fill="none" stroke="#666666" d="M171,-71.7C171,-63.98 171,-54.71 171,-46.11"/>
<polygon fill="#666666" stroke="#666666" points="174.5,-46.1 171,-36.1 167.5,-46.1 174.5,-46.1"/>
</g>
</g>
</svg>
